<?xml version="1.0" encoding="UTF-8"?>
<svg id="Layer_2" data-name="Layer 2" xmlns="http://www.w3.org/2000/svg" viewBox="0 0 624.91 141.16">
  <defs>
    <style>
      .cls-1 {
        fill: #fff;
        stroke-width: 0px;
      }
    </style>
  </defs>
  <g id="Layer_1-2" data-name="Layer 1">
    <g>
      <path class="cls-1" d="M222.02,36.24c-.91-.17-9.17-1.62-19.31-1.62-18.41,0-24.94,15.21-24.94,28.24v12.84c0,22.22,15.51,28.15,24.67,28.15s14.63-.46,19.62-1.54c1.5-.35,2.29-1.35,2.29-2.89v-29.96c0-1.41-1.15-2.56-2.56-2.56h-8.83c-1.38,0-2.47,1.12-2.47,2.56v22.01c-2.55.15-5.25.22-8.06.22-5.15,0-10.64-4.2-10.64-15.99v-12.84c0-10.22,3.98-16.08,10.91-16.08s13.15.23,18.82.71h.27c2.25,0,2.56-1.34,2.56-2.65v-5.97c0-.96-.4-2.19-2.33-2.63"/>
      <path class="cls-1" d="M274.6,51.3h-8.2c-1.39,0-2.56,1.21-2.56,2.65v35.23c-2.8,1.6-6.6,3.24-9.3,3.24s-3.94-.55-5.01-1.41c-1.51-1.35-1.79-3.85-1.79-7.99v-29.07c0-1.44-1.17-2.65-2.56-2.65h-8.2c-1.39,0-2.56,1.21-2.56,2.65v29.07c0,8.36,1.44,13.54,4.69,16.78,2.64,2.64,6.51,3.97,11.51,3.97s8.77-1.01,13.23-3.81v.62c0,1.41,1.15,2.56,2.56,2.56h8.2c1.41,0,2.56-1.15,2.56-2.56v-46.64c0-1.44-1.17-2.65-2.56-2.65"/>
      <path class="cls-1" d="M244.1,46.16h6.42c1.44,0,2.65-1.17,2.65-2.56v-7.85c0-1.39-1.21-2.56-2.65-2.56h-6.42c-1.44,0-2.65,1.17-2.65,2.56v7.85c0,1.39,1.21,2.56,2.65,2.56"/>
      <path class="cls-1" d="M261.93,46.16h6.42c1.43,0,2.65-1.17,2.65-2.56v-7.85c0-1.39-1.21-2.56-2.65-2.56h-6.42c-1.44,0-2.65,1.17-2.65,2.56v7.85c0,1.39,1.21,2.56,2.65,2.56"/>
      <path class="cls-1" d="M319.82,91.17h-18.73s20.33-27.83,20.33-27.83c.49-.65.6-2.29.6-2.52v-5.08c0-2.49-1.91-4.43-4.34-4.43h-30.32c-1.41,0-2.56,1.15-2.56,2.56v6.34c0,1.36.91,2.2,2.38,2.2h19.49s-21.24,29.24-21.24,29.24c-.87,1.06-1.33,2.22-1.33,3.34v3.83c0,2.48,1.87,4.34,4.34,4.34h31.21c1.41,0,2.56-1.15,2.56-2.56v-7.22c0-1.36-.91-2.2-2.38-2.2"/>
      <path class="cls-1" d="M349.79,50.68c-13.89,0-22.18,8.76-22.18,23.43v6.6c0,17.1,12.04,23.16,22.36,23.16,8.28,0,11.72-.57,17.42-1.52,2.33-.37,2.52-1.62,2.52-3.09v-5.88c0-.64-.23-2.11-2.38-2.11h-.34c-3.1.29-9.56.89-16.34.89-8.28,0-9.81-6.07-9.92-10.05h28.29c.77,0,2.56-.29,2.56-3v-4.99c0-14.45-8.43-23.43-22-23.43M358.37,72.17h-17.35c.14-6.13,3.4-9.78,8.77-9.78s8.45,3.64,8.59,9.78"/>
      <path class="cls-1" d="M390.72,33.73h-8.3c-1.41,0-2.55,1.15-2.55,2.56v64.22c0,1.44,1.17,2.64,2.55,2.64h8.3c1.36,0,2.47-1.19,2.47-2.64V36.29c0-1.44-1.08-2.56-2.47-2.56"/>
      <path class="cls-1" d="M442.13,35.88l-.99-.16c-2.78-.46-6.59-1.09-16.07-1.09-10.57,0-21.38,2.26-21.38,19.06v31.13c0,16.79,10.8,19.06,21.38,19.06,9.48,0,13.29-.63,16.07-1.09l1.03-.17c1.59-.32,2.4-.82,2.4-2.63v-5.71c0-1.41-1.15-2.56-2.56-2.56h-18.19c-4.93,0-6.28-1.48-6.28-6.9v-10.73h23.4c1.41,0,2.56-1.15,2.56-2.56v-6.42c0-1.41-1.15-2.56-2.56-2.56h-23.4v-8.86c0-5.42,1.35-6.9,6.28-6.9h18.19c1.41,0,2.56-1.15,2.56-2.55v-5.71c0-1.81-.81-2.31-2.44-2.64"/>
      <path class="cls-1" d="M479.83,50.68c-5.63,0-9.03.88-13.68,3.66v-.48c0-1.41-1.15-2.56-2.56-2.56h-7.76c-1.41,0-2.56,1.15-2.56,2.56v46.65c0,1.44,1.17,2.65,2.56,2.65h8.21c1.39,0,2.56-1.21,2.56-2.65v-35.39c3.87-2.03,6.67-2.9,9.3-2.9,6.22,0,6.8,1.63,6.8,9.22v29.08c0,1.44,1.17,2.65,2.56,2.65h8.21c1.39,0,2.56-1.21,2.56-2.65v-29.08c0-10.26-1.92-20.75-16.2-20.75"/>
      <path class="cls-1" d="M525.85,50.68c-13.89,0-22.18,8.76-22.18,23.43v6.6c0,17.1,12.04,23.16,22.36,23.16,8.28,0,11.72-.57,17.43-1.52,2.33-.37,2.53-1.62,2.53-3.09v-5.88c0-.64-.23-2.11-2.38-2.11h-.34c-3.1.29-9.56.89-16.34.89-8.28,0-9.81-6.07-9.92-10.05h28.29c.77,0,2.56-.29,2.56-3v-4.99c0-14.45-8.43-23.43-22-23.43M517.08,72.17c.14-6.13,3.4-9.78,8.77-9.78s8.44,3.64,8.58,9.78h-17.35Z"/>
      <path class="cls-1" d="M582.9,59.66v-6.42c0-1.41-1.15-2.56-2.56-2.56-3.17,0-7.71.64-11.98,3.53v-.35c0-1.41-1.15-2.56-2.56-2.56h-7.76c-1.41,0-2.56,1.15-2.56,2.56v46.65c0,1.43,1.17,2.64,2.56,2.64h8.2c1.39,0,2.56-1.21,2.56-2.64v-35.39c3.96-2.06,7.33-2.9,11.53-2.9,1.41,0,2.56-1.15,2.56-2.56"/>
      <path class="cls-1" d="M599.08,51.3h-8.2c-1.41,0-2.56,1.15-2.56,2.56v52.26c0,3.69-.32,3.95-2.35,3.95h-4.01c-2.39,0-2.65,1.54-2.65,2.2v5.8c0,.75.31,2.05,2.34,2.37,2.35.39,4.04.55,6.01.55,9.8,0,13.97-4.45,13.97-14.87v-52.26c0-1.41-1.15-2.56-2.56-2.56"/>
      <path class="cls-1" d="M599.25,33.2h-8.56c-1.41,0-2.56,1.15-2.56,2.56v7.85c0,1.41,1.14,2.56,2.56,2.56h8.56c1.44,0,2.65-1.17,2.65-2.56v-7.85c0-1.39-1.21-2.56-2.65-2.56"/>
      <path class="cls-1" d="M622.35,33.2h-8.65c-1.43,0-2.65,1.17-2.65,2.56v7.85c0,1.39,1.21,2.56,2.65,2.56h8.65c1.41,0,2.56-1.15,2.56-2.56v-7.85c0-1.41-1.15-2.56-2.56-2.56"/>
      <path class="cls-1" d="M622.09,51.3h-8.21c-1.41,0-2.56,1.15-2.56,2.56v46.64c0,1.44,1.17,2.65,2.56,2.65h8.21c1.39,0,2.56-1.21,2.56-2.65v-46.64c0-1.41-1.15-2.56-2.56-2.56"/>
      <path class="cls-1" d="M131.86,35.69c2.54,4.51,4,7.7,5.16,11.07l1.18,3.83c4.19,16.63-2.79,33.2-17.64,42.42l-35.92,20.76c-6.92,4-15.16.76-19.17-3.77-.23-.31-.47-.67-.69-1.04-.96-1.66-1.37-3.57-1.36-6.37v-10.11c0-1.97,1.07-3.81,2.78-4.79l40.07-23.15c3.75-2.17,5.88-3.86,7.24-7.08,1.78-5.35,1.68-12.62-1.13-17.49-1.46-2.53-4.73-5.19-8.74-7.5l-34.89-20.28c-8.68-4.65-19.06-7.05-28.34-5.32,33.4-15.96,73.41-3.22,91.45,28.81"/>
      <path class="cls-1" d="M9.75,35.12c2.64-4.46,4.67-7.32,7-10l2.72-2.93c12.31-11.94,30.14-14.18,45.55-5.93l35.94,20.72c6.92,4,8.24,12.75,6.32,18.49-.15.35-.34.74-.56,1.11-.96,1.66-2.4,2.97-4.83,4.36l-8.76,5.05c-1.71.98-3.83.98-5.53-.01l-40.08-23.12c-3.75-2.16-6.28-3.16-9.76-2.73-5.52,1.13-11.76,4.85-14.57,9.73-1.46,2.53-2.13,6.69-2.13,11.32l-.12,40.35c.31,9.85,3.43,20.03,9.56,27.21C0,107.78-8.98,66.77,9.75,35.12"/>
      <path class="cls-1" d="M70.31,141.16c-5.18-.05-8.67-.38-12.17-1.06l-3.9-.89c-16.5-4.69-27.35-19.01-27.92-36.48l-.02-41.49c0-8,6.92-13.51,12.85-14.72.38-.05.81-.08,1.24-.08,1.92,0,3.77.6,6.19,2l8.75,5.06c1.71.98,2.76,2.82,2.76,4.8v46.27c.02,4.32.41,7.02,2.53,9.81,3.74,4.22,10.08,7.76,15.71,7.76,2.92,0,6.86-1.51,10.87-3.82l35.01-20.07c8.37-5.19,15.63-12.98,18.78-21.88-2.88,36.9-33.91,65.18-70.68,64.79"/>
    </g>
  </g>
</svg>